# Rhino

g Predefinito
o object_1
v 0.09349061548709869 -28.25434684753418 0
v 0.09349061548709869 -28.25434684753418 12.25687408447266
v 13.32241344451904 -28.25434684753418 0
v 13.32241344451904 -28.25434684753418 12.25687408447266
v 6.70795202255249 -28.25434684753418 0
v 13.32241344451904 -28.25434684753418 6.128437042236328
v 6.70795202255249 -28.25434684753418 12.25687408447266
v 0.09349061548709869 -28.25434684753418 6.128437042236328
v 13.32241344451904 -28.25434684753418 0
v 13.32241344451904 -28.25434684753418 12.25687408447266
v 13.32241344451904 13.32241344451904 0
v 13.32241344451904 13.32241344451904 12.25687408447266
v 13.32241344451904 -28.25434684753418 6.128437042236328
v 13.32241344451904 -7.465966701507568 0
v 13.32241344451904 13.32241344451904 6.128437042236328
v 13.32241344451904 -17.42214393615723 12.25687408447266
v 13.32241344451904 -4.236158847808838 12.25687408447266
v 13.32241344451904 -4.236158847808838 9.192655563354492
v 13.32241344451904 -4.236158847808838 6.128437042236328
v 13.32241344451904 -17.42214393615723 6.128437042236328
v 13.32241344451904 -17.42214393615723 9.192655563354492
v 13.32241344451904 -10.82915115356445 6.128437042236328
v 13.32241344451904 13.32241344451904 0
v 13.32241344451904 13.32241344451904 12.25687408447266
v 0.09349061548709869 13.32241344451904 0
v 0.09349061548709869 13.32241344451904 12.25687408447266
v 13.32241344451904 13.32241344451904 6.128437042236328
v 6.70795202255249 13.32241344451904 0
v 0.09349061548709869 13.32241344451904 6.128437042236328
v 6.70795202255249 13.32241344451904 12.25687408447266
v 0.09349061548709869 13.32241344451904 0
v 0.09349061548709869 13.32241344451904 12.25687408447266
v 0.09349061548709869 -28.25434684753418 0
v 0.09349061548709869 -28.25434684753418 12.25687408447266
v 0.09349061548709869 -28.25434684753418 6.128437042236328
v 0.09349061548709869 13.32241344451904 6.128437042236328
v 0.09349061548709869 -7.465966701507568 0
v 0.09349061548709869 -7.465966701507568 12.25687408447266
v 0.09349061548709869 -28.25434684753418 0
v 0.09349061548709869 13.32241344451904 0
v 13.32241344451904 -28.25434684753418 0
v 13.32241344451904 13.32241344451904 0
v 6.70795202255249 -28.25434684753418 0
v 13.32241344451904 -7.465966701507568 0
v 6.70795202255249 13.32241344451904 0
v 0.09349061548709869 -7.465966701507568 0
v 0.09349061548709869 -28.25434684753418 12.25687408447266
v 0.09349061548709869 13.32241344451904 12.25687408447266
v 13.32241344451904 -28.25434684753418 12.25687408447266
v 13.32241344451904 13.32241344451904 12.25687408447266
v 6.70795202255249 -28.25434684753418 12.25687408447266
v 13.32241344451904 -17.42214393615723 12.25687408447266
v 6.70795202255249 13.32241344451904 12.25687408447266
v 0.09349061548709869 -7.465966701507568 12.25687408447266
v 4.941214084625244 -17.42214393615723 12.25687408447266
v 4.941214084625244 -10.82915115356445 12.25687408447266
v 4.941214084625244 -4.236158847808838 12.25687408447266
v 13.32241344451904 -4.236158847808838 12.25687408447266
v 18.12719917297363 -4.236158847808838 12.25687408447266
v 18.12719917297363 -4.236158847808838 6.128437042236328
v 18.12719917297363 -17.42214393615723 12.25687408447266
v 18.12719917297363 -17.42214393615723 6.128437042236328
v 18.12719917297363 -4.236158847808838 9.192655563354492
v 18.12719917297363 -10.82915115356445 12.25687408447266
v 18.12719917297363 -17.42214393615723 9.192655563354492
v 18.12719917297363 -10.82915115356445 6.128437042236328
v 13.32241344451904 -17.42214393615723 12.25687408447266
v 13.32241344451904 -4.236158847808838 12.25687408447266
v 4.941214084625244 -4.236158847808838 12.25687408447266
v 4.941214084625244 -10.82915115356445 12.25687408447266
v 4.941214084625244 -17.42214393615723 12.25687408447266
v 13.32241344451904 -10.82915115356445 12.25687408447266
v 13.32241344451904 -4.236158847808838 12.25687408447266
v 18.12719917297363 -4.236158847808838 12.25687408447266
v 18.12719917297363 -4.236158847808838 6.128437042236328
v 18.12719917297363 -4.236158847808838 9.192655563354492
v 13.32241344451904 -4.236158847808838 6.128437042236328
v 13.32241344451904 -4.236158847808838 9.192655563354492
v 15.72480583190918 -4.236158847808838 12.25687408447266
v 15.72480583190918 -4.236158847808838 6.128437042236328
v 18.12719917297363 -17.42214393615723 12.25687408447266
v 18.12719917297363 -17.42214393615723 6.128437042236328
v 13.32241344451904 -17.42214393615723 12.25687408447266
v 13.32241344451904 -17.42214393615723 6.128437042236328
v 18.12719917297363 -17.42214393615723 9.192655563354492
v 15.72480583190918 -17.42214393615723 12.25687408447266
v 15.72480583190918 -17.42214393615723 6.128437042236328
v 13.32241344451904 -17.42214393615723 9.192655563354492
v 18.12719917297363 -17.42214393615723 12.25687408447266
v 13.32241344451904 -4.236158847808838 12.25687408447266
v 18.12719917297363 -4.236158847808838 12.25687408447266
v 18.12719917297363 -10.82915115356445 12.25687408447266
v 15.72480583190918 -17.42214393615723 12.25687408447266
v 13.32241344451904 -17.42214393615723 12.25687408447266
v 13.32241344451904 -10.82915115356445 12.25687408447266
v 15.72480583190918 -4.236158847808838 12.25687408447266
v 13.32241344451904 -17.42214393615723 6.128437042236328
v 18.12719917297363 -17.42214393615723 6.128437042236328
v 18.12719917297363 -4.236158847808838 6.128437042236328
v 18.12719917297363 -10.82915115356445 6.128437042236328
v 15.72480583190918 -17.42214393615723 6.128437042236328
v 13.32241344451904 -10.82915115356445 6.128437042236328
v 13.32241344451904 -4.236158847808838 6.128437042236328
v 15.72480583190918 -4.236158847808838 6.128437042236328
vt 0.1939353048801422 0.6748816967010498
vt 0.1939353048801422 0.8537946939468384
vt 0.3870372772216797 0.6748816967010498
vt 0.3870372772216797 0.8537946939468384
vt 0.2904863059520721 0.6748816967010498
vt 0.3870372772216797 0.7643381953239441
vt 0.2904863059520721 0.8537946939468384
vt 0.1939353048801422 0.7643381953239441
vt 0.3885021209716797 0.2404648065567017
vt 0.3885021209716797 0.4203032255172729
vt 0.99853515625 0.2404648065567017
vt 0.99853515625 0.4203032255172729
vt 0.3885021209716797 0.3303840160369873
vt 0.6935186386108398 0.2404648065567017
vt 0.99853515625 0.3303840160369873
vt 0.5474371314048767 0.4203032255172729
vt 0.7409078478813171 0.4203032255172729
vt 0.7409078478813171 0.3753436207771301
vt 0.7409078478813171 0.3303840160369873
vt 0.5474371314048767 0.3303840160369873
vt 0.5474371314048767 0.3753436207771301
vt 0.6441724896430969 0.3303840160369873
vt 0.1939353048801422 0.3497633337974548
vt 0.1939353048801422 0.5286763906478882
vt 0.3870372772216797 0.3497633337974548
vt 0.3870372772216797 0.5286763906478882
vt 0.1939353048801422 0.4392198622226715
vt 0.2904863059520721 0.3497633337974548
vt 0.3870372772216797 0.4392198622226715
vt 0.2904863059520721 0.5286763906478882
vt 0.3885021209716797 0
vt 0.3885021209716797 0.1798384040594101
vt 0.99853515625 0
vt 0.99853515625 0.1798384040594101
vt 0.99853515625 0.08991920202970505
vt 0.3885021209716797 0.08991920202970505
vt 0.6935186386108398 0
vt 0.6935186386108398 0.1798384040594101
vt 0.99853515625 0.7404648065567017
vt 0.3885021209716797 0.7404648065567017
vt 0.99853515625 0.934565544128418
vt 0.3885021209716797 0.934565544128418
vt 0.99853515625 0.8375151753425598
vt 0.6935186386108398 0.934565544128418
vt 0.3885021209716797 0.8375151753425598
vt 0.6935186386108398 0.7404648065567017
vt 0.99853515625 0.4809296131134033
vt 0.3885021209716797 0.4809296131134033
vt 0.99853515625 0.6750303506851196
vt 0.3885021209716797 0.6750303506851196
vt 0.99853515625 0.5779799818992615
vt 0.839600145816803 0.6750303506851196
vt 0.3885021209716797 0.5779799818992615
vt 0.6935186386108398 0.4809296131134033
vt 0.839600145816803 0.5520576238632202
vt 0.7428647875785828 0.5520576238632202
vt 0.6461294293403625 0.5520576238632202
vt 0.6461294293403625 0.6750303506851196
vt 0 0.3497633337974548
vt 0 0.4392176568508148
vt 0.1924704611301422 0.3497633337974548
vt 0.1924704611301422 0.4392176568508148
vt 0 0.3944904804229736
vt 0.09623523056507111 0.3497633337974548
vt 0.1924704611301422 0.3944904804229736
vt 0.09623523056507111 0.4392176568508148
vt 0.1423251628875732 0.7467408776283264
vt 0.08128353953361511 0.7467408776283264
vt 0.08128353953361511 0.6692341566085815
vt 0.1118043512105942 0.6692341566085815
vt 0.1423251628875732 0.6692341566085815
vt 0.1118043512105942 0.7467408776283264
vt 0.1498192846775055 0.2495412528514862
vt 0.1498192846775055 0.2923422157764435
vt 0 0.2923422157764435
vt 0.07490964233875275 0.2923422157764435
vt 0 0.2495412528514862
vt 0.07490964233875275 0.2495412528514862
vt 0.1498192846775055 0.2709417343139648
vt 0 0.2709417343139648
vt 0.1498192846775055 0
vt 0 0
vt 0.1498192846775055 0.04280095174908638
vt 0 0.04280095174908638
vt 0.07490964233875275 0
vt 0.1498192846775055 0.02140047587454319
vt 0 0.02140047587454319
vt 0.07490964233875275 0.04280095174908638
vt 0.2698931396007538 0
vt 0.3125787973403931 0.3214838802814484
vt 0.2698931396007538 0.3214838802814484
vt 0.2698931396007538 0.1607419401407242
vt 0.2912359535694122 0
vt 0.3125787973403931 0
vt 0.3125787973403931 0.1607419401407242
vt 0.2912359535694122 0.3214838802814484
vt 0.193969801068306 0
vt 0.1512841284275055 0
vt 0.1512841284275055 0.3214838802814484
vt 0.1512841284275055 0.1607419401407242
vt 0.1726269721984863 0
vt 0.193969801068306 0.1607419401407242
vt 0.193969801068306 0.3214838802814484
vt 0.1726269721984863 0.3214838802814484
vn 0 -1 0
vn 0 -1 0
vn 0 -1 0
vn 0 -1 0
vn 0 -1 0
vn 0 -1 0
vn 0 -1 0
vn 0 -1 0
vn 1 0 0
vn 1 0 0
vn 1 0 0
vn 1 0 0
vn 1 0 0
vn 1 0 0
vn 1 0 0
vn 1 0 0
vn 1 0 0
vn 1 0 0
vn 1 3.532515503193842e-17 0
vn 1 3.532515503193842e-17 0
vn 1 0 0
vn 1 3.532515503193842e-17 0
vn 0 1 0
vn 0 1 0
vn 0 1 0
vn 0 1 0
vn 0 1 0
vn 0 1 0
vn 0 1 0
vn 0 1 0
vn -1 0 0
vn -1 0 0
vn -1 0 0
vn -1 0 0
vn -1 0 0
vn -1 0 0
vn -1 0 0
vn -1 0 0
vn 0 0 -1
vn 0 0 -1
vn 0 0 -1
vn 0 0 -1
vn 0 0 -1
vn 0 0 -1
vn 0 0 -1
vn 0 0 -1
vn 0 0 1
vn 0 0 1
vn 0 0 1
vn 0 0 1
vn 0 0 1
vn 0 0 1
vn 0 0 1
vn 0 0 1
vn 0 0 1
vn 0 0 1
vn 0 0 1
vn 0 0 1
vn 1 0 0
vn 1 0 0
vn 1 0 0
vn 1 0 0
vn 1 0 0
vn 1 0 0
vn 1 -1.110223024625157e-16 0
vn 1 0 0
vn -2.775557561562891e-17 0 1
vn 0 0 1
vn 0 0 1
vn 0 0 1
vn 0 0 1
vn 0 0 1
vn 0 1 0
vn 0 1 0
vn 0 1 0
vn 0 1 0
vn 0 1 0
vn 2.775557561562891e-17 1 0
vn 0 1 0
vn 0 1 0
vn 0 -1 0
vn 0 -1 0
vn 0 -1 0
vn 0 -1 0
vn 0 -1 0
vn 0 -1 0
vn 0 -1 0
vn 0 -1 0
vn 0 0 1
vn 0 1.110223024625157e-16 1
vn 0 0 1
vn 0 0 1
vn 0 0 1
vn 0 0 1
vn 0 0 1
vn 0 0 1
vn 0 -5.551115123125783e-17 -1
vn 0 0 -1
vn 0 0 -1
vn 0 0 -1
vn 0 0 -1
vn 0 0 -1
vn 0 0 -1
vn 0 0 -1
f 8/8/8 1/1/1 5/5/5
f 8/8/8 7/7/7 2/2/2
f 6/6/6 8/8/8 5/5/5
f 8/8/8 6/6/6 7/7/7
f 6/6/6 4/4/4 7/7/7
f 3/3/3 6/6/6 5/5/5
f 22/22/22 20/20/20 14/14/14
f 9/9/9 14/14/14 20/20/20
f 13/13/13 9/9/9 20/20/20
f 21/21/21 10/10/10 13/13/13
f 10/10/10 21/21/21 16/16/16
f 21/21/21 13/13/13 20/20/20
f 19/19/19 14/14/14 11/11/11
f 15/15/15 19/19/19 11/11/11
f 12/12/12 17/17/17 18/18/18
f 18/18/18 15/15/15 12/12/12
f 15/15/15 18/18/18 19/19/19
f 19/19/19 22/22/22 14/14/14
f 27/27/27 23/23/23 28/28/28
f 27/27/27 30/30/30 24/24/24
f 29/29/29 27/27/27 28/28/28
f 27/27/27 29/29/29 30/30/30
f 29/29/29 26/26/26 30/30/30
f 25/25/25 29/29/29 28/28/28
f 36/36/36 31/31/31 37/37/37
f 36/36/36 38/38/38 32/32/32
f 35/35/35 36/36/36 37/37/37
f 36/36/36 35/35/35 38/38/38
f 35/35/35 34/34/34 38/38/38
f 33/33/33 35/35/35 37/37/37
f 46/46/46 43/43/43 39/39/39
f 46/46/46 40/40/40 45/45/45
f 45/45/45 43/43/43 46/46/46
f 43/43/43 45/45/45 44/44/44
f 44/44/44 45/45/45 42/42/42
f 41/41/41 43/43/43 44/44/44
f 55/55/55 54/54/54 47/47/47
f 51/51/51 55/55/55 47/47/47
f 56/56/56 54/54/54 55/55/55
f 48/48/48 54/54/54 57/57/57
f 56/56/56 57/57/57 54/54/54
f 53/53/53 48/48/48 57/57/57
f 52/52/52 51/51/51 49/49/49
f 50/50/50 53/53/53 58/58/58
f 58/58/58 53/53/53 57/57/57
f 52/52/52 55/55/55 51/51/51
f 63/63/63 59/59/59 64/64/64
f 63/63/63 66/66/66 60/60/60
f 65/65/65 63/63/63 64/64/64
f 63/63/63 65/65/65 66/66/66
f 65/65/65 62/62/62 66/66/66
f 61/61/61 65/65/65 64/64/64
f 70/70/70 71/71/71 67/67/67 72/72/72
f 69/69/69 70/70/70 72/72/72 68/68/68
f 78/78/78 73/73/73 79/79/79
f 78/78/78 80/80/80 77/77/77
f 76/76/76 78/78/78 79/79/79
f 78/78/78 76/76/76 80/80/80
f 76/76/76 75/75/75 80/80/80
f 74/74/74 76/76/76 79/79/79
f 85/85/85 81/81/81 86/86/86
f 85/85/85 87/87/87 82/82/82
f 88/88/88 85/85/85 86/86/86 83/83/83
f 85/85/85 88/88/88 84/84/84 87/87/87
f 93/93/93 95/95/95 94/94/94
f 93/93/93 89/89/89 92/92/92
f 96/96/96 95/95/95 93/93/93
f 93/93/93 92/92/92 96/96/96
f 96/96/96 92/92/92 91/91/91
f 90/90/90 95/95/95 96/96/96
f 101/101/101 97/97/97 102/102/102
f 101/101/101 100/100/100 98/98/98
f 104/104/104 101/101/101 102/102/102
f 101/101/101 104/104/104 100/100/100
f 104/104/104 99/99/99 100/100/100
f 103/103/103 104/104/104 102/102/102
